<svg xmlns="http://www.w3.org/2000/svg" viewBox="0 0 160 160">
  <!-- Red rounded-square background -->
  <rect width="160" height="160" rx="36" fill="#dc2626"/>
  <!-- HorusEye icon centered and scaled, in white -->
  <g transform="translate(10, 17) scale(0.98)">
    <path fill="#ffffff" d="M104.69,96.11l38.51,15.88-5.49,13.78L.17,69.82l-.17-13.91L137.41,0l5.86,13.65-38.77,15.92c12.14,7.73,18.83,19.48,18.97,32.56s-5.81,25.09-18.77,33.98ZM80.32,40.13c-13.44,3.07-20.65,16-17.58,28.42s15.31,19.55,27.12,17.11c12.87-2.65,20.86-14.95,18.3-27.47s-14.57-21.09-27.85-18.06ZM48.1,73.24c-.95-7.96-.77-13.6-.19-20.79l-24.9,10.44,25.09,10.35Z"/>
  </g>
</svg>
